<?xml version="1.0" encoding="utf-8"?>
<svg xmlns="http://www.w3.org/2000/svg" version="1.1" width="1000" height="1500">
<rect width="100" height="100" x="0" y="0" fill="blue" />
<rect width="100" height="100" x="100" y="0" fill="white" />
<rect width="100" height="100" x="200" y="0" fill="red" />
<rect width="100" height="100" x="300" y="0" fill="black" />
<rect width="100" height="100" x="400" y="0" fill="blue" />
<rect width="100" height="100" x="500" y="0" fill="black" />
<rect width="100" height="100" x="600" y="0" fill="white" />
<rect width="100" height="100" x="700" y="0" fill="red" />
<rect width="100" height="100" x="800" y="0" fill="green" />
<rect width="100" height="100" x="900" y="0" fill="white" />
<rect width="100" height="100" x="0" y="100" fill="red" />
<rect width="100" height="100" x="100" y="100" fill="red" />
<rect width="100" height="100" x="200" y="100" fill="black" />
<rect width="100" height="100" x="300" y="100" fill="green" />
<rect width="100" height="100" x="400" y="100" fill="blue" />
<rect width="100" height="100" x="500" y="100" fill="white" />
<rect width="100" height="100" x="600" y="100" fill="black" />
<rect width="100" height="100" x="700" y="100" fill="white" />
<rect width="100" height="100" x="800" y="100" fill="red" />
<rect width="100" height="100" x="900" y="100" fill="white" />
<rect width="100" height="100" x="0" y="200" fill="white" />
<rect width="100" height="100" x="100" y="200" fill="blue" />
<rect width="100" height="100" x="200" y="200" fill="red" />
<rect width="100" height="100" x="300" y="200" fill="green" />
<rect width="100" height="100" x="400" y="200" fill="red" />
<rect width="100" height="100" x="500" y="200" fill="black" />
<rect width="100" height="100" x="600" y="200" fill="red" />
<rect width="100" height="100" x="700" y="200" fill="blue" />
<rect width="100" height="100" x="800" y="200" fill="red" />
<rect width="100" height="100" x="900" y="200" fill="black" />
<rect width="100" height="100" x="0" y="300" fill="green" />
<rect width="100" height="100" x="100" y="300" fill="red" />
<rect width="100" height="100" x="200" y="300" fill="red" />
<rect width="100" height="100" x="300" y="300" fill="blue" />
<rect width="100" height="100" x="400" y="300" fill="green" />
<rect width="100" height="100" x="500" y="300" fill="red" />
<rect width="100" height="100" x="600" y="300" fill="blue" />
<rect width="100" height="100" x="700" y="300" fill="white" />
<rect width="100" height="100" x="800" y="300" fill="white" />
<rect width="100" height="100" x="900" y="300" fill="red" />
<rect width="100" height="100" x="0" y="400" fill="green" />
<rect width="100" height="100" x="100" y="400" fill="blue" />
<rect width="100" height="100" x="200" y="400" fill="white" />
<rect width="100" height="100" x="300" y="400" fill="green" />
<rect width="100" height="100" x="400" y="400" fill="green" />
<rect width="100" height="100" x="500" y="400" fill="red" />
<rect width="100" height="100" x="600" y="400" fill="blue" />
<rect width="100" height="100" x="700" y="400" fill="green" />
<rect width="100" height="100" x="800" y="400" fill="black" />
<rect width="100" height="100" x="900" y="400" fill="black" />
<rect width="100" height="100" x="0" y="500" fill="blue" />
<rect width="100" height="100" x="100" y="500" fill="white" />
<rect width="100" height="100" x="200" y="500" fill="white" />
<rect width="100" height="100" x="300" y="500" fill="black" />
<rect width="100" height="100" x="400" y="500" fill="white" />
<rect width="100" height="100" x="500" y="500" fill="blue" />
<rect width="100" height="100" x="600" y="500" fill="red" />
<rect width="100" height="100" x="700" y="500" fill="black" />
<rect width="100" height="100" x="800" y="500" fill="white" />
<rect width="100" height="100" x="900" y="500" fill="white" />
<rect width="100" height="100" x="0" y="600" fill="black" />
<rect width="100" height="100" x="100" y="600" fill="black" />
<rect width="100" height="100" x="200" y="600" fill="green" />
<rect width="100" height="100" x="300" y="600" fill="red" />
<rect width="100" height="100" x="400" y="600" fill="white" />
<rect width="100" height="100" x="500" y="600" fill="black" />
<rect width="100" height="100" x="600" y="600" fill="white" />
<rect width="100" height="100" x="700" y="600" fill="green" />
<rect width="100" height="100" x="800" y="600" fill="blue" />
<rect width="100" height="100" x="900" y="600" fill="red" />
<rect width="100" height="100" x="0" y="700" fill="green" />
<rect width="100" height="100" x="100" y="700" fill="black" />
<rect width="100" height="100" x="200" y="700" fill="red" />
<rect width="100" height="100" x="300" y="700" fill="black" />
<rect width="100" height="100" x="400" y="700" fill="green" />
<rect width="100" height="100" x="500" y="700" fill="red" />
<rect width="100" height="100" x="600" y="700" fill="green" />
<rect width="100" height="100" x="700" y="700" fill="green" />
<rect width="100" height="100" x="800" y="700" fill="blue" />
<rect width="100" height="100" x="900" y="700" fill="black" />
<rect width="100" height="100" x="0" y="800" fill="red" />
<rect width="100" height="100" x="100" y="800" fill="blue" />
<rect width="100" height="100" x="200" y="800" fill="white" />
<rect width="100" height="100" x="300" y="800" fill="blue" />
<rect width="100" height="100" x="400" y="800" fill="blue" />
<rect width="100" height="100" x="500" y="800" fill="green" />
<rect width="100" height="100" x="600" y="800" fill="blue" />
<rect width="100" height="100" x="700" y="800" fill="white" />
<rect width="100" height="100" x="800" y="800" fill="green" />
<rect width="100" height="100" x="900" y="800" fill="green" />
<rect width="100" height="100" x="0" y="900" fill="red" />
<rect width="100" height="100" x="100" y="900" fill="black" />
<rect width="100" height="100" x="200" y="900" fill="white" />
<rect width="100" height="100" x="300" y="900" fill="blue" />
<rect width="100" height="100" x="400" y="900" fill="green" />
<rect width="100" height="100" x="500" y="900" fill="red" />
<rect width="100" height="100" x="600" y="900" fill="white" />
<rect width="100" height="100" x="700" y="900" fill="white" />
<rect width="100" height="100" x="800" y="900" fill="green" />
<rect width="100" height="100" x="900" y="900" fill="green" />
<rect width="100" height="100" x="0" y="1000" fill="black" />
<rect width="100" height="100" x="100" y="1000" fill="black" />
<rect width="100" height="100" x="200" y="1000" fill="green" />
<rect width="100" height="100" x="300" y="1000" fill="blue" />
<rect width="100" height="100" x="400" y="1000" fill="red" />
<rect width="100" height="100" x="500" y="1000" fill="white" />
<rect width="100" height="100" x="600" y="1000" fill="red" />
<rect width="100" height="100" x="700" y="1000" fill="red" />
<rect width="100" height="100" x="800" y="1000" fill="red" />
<rect width="100" height="100" x="900" y="1000" fill="red" />
<rect width="100" height="100" x="0" y="1100" fill="red" />
<rect width="100" height="100" x="100" y="1100" fill="white" />
<rect width="100" height="100" x="200" y="1100" fill="white" />
<rect width="100" height="100" x="300" y="1100" fill="black" />
<rect width="100" height="100" x="400" y="1100" fill="white" />
<rect width="100" height="100" x="500" y="1100" fill="white" />
<rect width="100" height="100" x="600" y="1100" fill="black" />
<rect width="100" height="100" x="700" y="1100" fill="green" />
<rect width="100" height="100" x="800" y="1100" fill="green" />
<rect width="100" height="100" x="900" y="1100" fill="green" />
<rect width="100" height="100" x="0" y="1200" fill="black" />
<rect width="100" height="100" x="100" y="1200" fill="green" />
<rect width="100" height="100" x="200" y="1200" fill="white" />
<rect width="100" height="100" x="300" y="1200" fill="red" />
<rect width="100" height="100" x="400" y="1200" fill="red" />
<rect width="100" height="100" x="500" y="1200" fill="white" />
<rect width="100" height="100" x="600" y="1200" fill="white" />
<rect width="100" height="100" x="700" y="1200" fill="black" />
<rect width="100" height="100" x="800" y="1200" fill="green" />
<rect width="100" height="100" x="900" y="1200" fill="red" />
<rect width="100" height="100" x="0" y="1300" fill="red" />
<rect width="100" height="100" x="100" y="1300" fill="white" />
<rect width="100" height="100" x="200" y="1300" fill="red" />
<rect width="100" height="100" x="300" y="1300" fill="blue" />
<rect width="100" height="100" x="400" y="1300" fill="white" />
<rect width="100" height="100" x="500" y="1300" fill="black" />
<rect width="100" height="100" x="600" y="1300" fill="white" />
<rect width="100" height="100" x="700" y="1300" fill="blue" />
<rect width="100" height="100" x="800" y="1300" fill="green" />
<rect width="100" height="100" x="900" y="1300" fill="green" />
<rect width="100" height="100" x="0" y="1400" fill="blue" />
<rect width="100" height="100" x="100" y="1400" fill="white" />
<rect width="100" height="100" x="200" y="1400" fill="red" />
<rect width="100" height="100" x="300" y="1400" fill="green" />
<rect width="100" height="100" x="400" y="1400" fill="blue" />
<rect width="100" height="100" x="500" y="1400" fill="green" />
<rect width="100" height="100" x="600" y="1400" fill="black" />
<rect width="100" height="100" x="700" y="1400" fill="blue" />
<rect width="100" height="100" x="800" y="1400" fill="blue" />
<rect width="100" height="100" x="900" y="1400" fill="black" />
</svg>
